<svg width="97" height="40" viewBox="0 0 97 40" fill="none" xmlns="http://www.w3.org/2000/svg">
<path d="M78.8334 40C77.9391 40 77.0956 39.9289 76.3029 39.7866C75.5103 39.6545 74.8294 39.4766 74.2603 39.253L75.9066 33.8415C76.6383 34.0854 77.2989 34.2276 77.8883 34.2683C78.4879 34.3089 79.0011 34.2124 79.4279 33.9787C79.8649 33.7551 80.2003 33.3537 80.434 32.7744L80.7237 32.0732L72.4005 7.80487H80.2054L84.5194 22.3323H84.7633L89.1383 7.80487H96.9889L88.1627 33.4604C87.7359 34.7409 87.1312 35.8689 86.3487 36.8445C85.5763 37.8303 84.5753 38.6026 83.3456 39.1616C82.1261 39.7205 80.622 40 78.8334 40Z" fill="#E7FEF8"/>
<path d="M55.5923 7.80487L59.449 15.5183L63.4429 7.80487H70.9582L64.4185 19.5122L71.2021 31.2195H63.7478L59.449 23.4451L55.2569 31.2195H47.696L54.4947 19.5122L48.0313 7.80487H55.5923Z" fill="#E7FEF8"/>
<path d="M37.1377 31.2195V13.4451L44.592 7.91159V31.2195H37.1377Z" fill="#E7FEF8"/>
<path d="M32.4789 0V31.2195H25.0247V0H32.4789Z" fill="#E7FEF8"/>
<path d="M0 31.2195V0H21.311V6.12805H7.54573V12.5305H19.9543V18.6738H7.54573V31.2195H0Z" fill="#E7FEF8"/>
<path d="M71.2659 34.1159V39.2378H70.8207V34.1159H71.2659Z" fill="#E7FEF8"/>
<path d="M68.0579 39.3253C67.8261 39.3253 67.6144 39.2803 67.4227 39.1903C67.2309 39.0986 67.0784 38.9669 66.965 38.7951C66.8516 38.6217 66.7949 38.4116 66.7949 38.1649C66.7949 37.9748 66.8308 37.8148 66.9025 37.6847C66.9742 37.5546 67.0759 37.4479 67.2076 37.3646C67.3393 37.2812 67.4952 37.2154 67.6753 37.167C67.8553 37.1186 68.0537 37.0811 68.2705 37.0545C68.4856 37.0278 68.6673 37.0044 68.8157 36.9844C68.9657 36.9644 69.08 36.9327 69.1583 36.8894C69.2367 36.846 69.2759 36.776 69.2759 36.6793V36.5893C69.2759 36.3275 69.1975 36.1216 69.0408 35.9715C68.8857 35.8198 68.6623 35.744 68.3705 35.744C68.0938 35.744 67.8678 35.8048 67.6928 35.9265C67.5194 36.0482 67.3977 36.1916 67.3276 36.3567L66.905 36.2041C66.9917 35.9941 67.1117 35.8265 67.2651 35.7014C67.4185 35.5747 67.5902 35.4839 67.7803 35.4288C67.9704 35.3722 68.1629 35.3438 68.358 35.3438C68.5047 35.3438 68.6573 35.363 68.8157 35.4013C68.9758 35.4397 69.1241 35.5064 69.2609 35.6014C69.3976 35.6948 69.5085 35.8257 69.5935 35.9941C69.6785 36.1608 69.721 36.3725 69.721 36.6293V39.2378H69.2759V38.6301H69.2484C69.195 38.7434 69.1158 38.8535 69.0108 38.9602C68.9057 39.0669 68.774 39.1544 68.6156 39.2228C68.4572 39.2911 68.2713 39.3253 68.0579 39.3253ZM68.1179 38.9177C68.3547 38.9177 68.5598 38.8652 68.7332 38.7601C68.9066 38.6551 69.0399 38.5159 69.1333 38.3424C69.2284 38.1674 69.2759 37.9748 69.2759 37.7647V37.2095C69.2425 37.2412 69.1867 37.2695 69.1083 37.2945C69.0316 37.3196 68.9424 37.3421 68.8407 37.3621C68.7407 37.3804 68.6406 37.3963 68.5406 37.4096C68.4405 37.4229 68.3505 37.4346 68.2705 37.4446C68.0537 37.4713 67.8687 37.513 67.7153 37.5697C67.5619 37.6263 67.4443 37.7047 67.3626 37.8047C67.2809 37.9031 67.2401 38.0298 67.2401 38.1849C67.2401 38.4183 67.3235 38.5992 67.4902 38.7276C67.6569 38.8543 67.8662 38.9177 68.1179 38.9177Z" fill="#E7FEF8"/>
<path d="M66.0585 35.3963V35.784H64.2253V35.3963H66.0585ZM64.798 34.476H65.2457V38.2349C65.2457 38.395 65.2732 38.5209 65.3282 38.6126C65.3833 38.7026 65.4549 38.7668 65.5433 38.8051C65.6317 38.8418 65.7259 38.8602 65.8259 38.8602C65.8843 38.8602 65.9343 38.8568 65.976 38.8502C66.0177 38.8418 66.0543 38.8335 66.086 38.8252L66.1811 39.2278C66.1377 39.2445 66.0844 39.2595 66.021 39.2728C65.9576 39.2878 65.8793 39.2953 65.7859 39.2953C65.6225 39.2953 65.465 39.2595 65.3132 39.1878C65.1632 39.1161 65.0398 39.0094 64.9431 38.8677C64.8464 38.726 64.798 38.55 64.798 38.34V34.476Z" fill="#E7FEF8"/>
<path d="M60.9967 36.8369V39.2378H60.5515V35.3964H60.9842V35.9991H61.0242C61.1142 35.8024 61.2543 35.6448 61.4444 35.5264C61.6361 35.4064 61.8729 35.3463 62.1546 35.3463C62.4131 35.3463 62.6398 35.4005 62.8349 35.5089C63.0316 35.6156 63.1842 35.7732 63.2926 35.9816C63.4026 36.19 63.4576 36.4459 63.4576 36.7494V39.2378H63.0125V36.7769C63.0125 36.4618 62.9241 36.2125 62.7473 36.0291C62.5723 35.8457 62.3372 35.754 62.0421 35.754C61.8403 35.754 61.6611 35.7974 61.5044 35.8841C61.3477 35.9708 61.2234 36.0958 61.1317 36.2592C61.0417 36.4209 60.9967 36.6135 60.9967 36.8369Z" fill="#E7FEF8"/>
<path d="M58.0969 39.3178C57.7385 39.3178 57.4283 39.2345 57.1666 39.0677C56.9048 38.8993 56.7022 38.6667 56.5588 38.37C56.4171 38.0715 56.3463 37.7281 56.3463 37.3396C56.3463 36.9528 56.4171 36.6093 56.5588 36.3092C56.7022 36.0074 56.8998 35.7715 57.1516 35.6014C57.405 35.4297 57.6976 35.3438 58.0294 35.3438C58.2378 35.3438 58.4387 35.3822 58.6321 35.4589C58.8255 35.5339 58.9989 35.6498 59.1523 35.8065C59.3074 35.9615 59.4299 36.1575 59.52 36.3942C59.61 36.6293 59.655 36.9077 59.655 37.2295V37.4496H56.6539V37.057H59.1998C59.1998 36.8102 59.1498 36.5884 59.0498 36.3917C58.9514 36.1933 58.8139 36.0366 58.6371 35.9215C58.4621 35.8065 58.2595 35.749 58.0294 35.749C57.786 35.749 57.5717 35.814 57.3867 35.944C57.2016 36.0741 57.0565 36.2458 56.9515 36.4592C56.8481 36.6726 56.7956 36.9061 56.7939 37.1595V37.3946C56.7939 37.6997 56.8464 37.9665 56.9515 38.1949C57.0582 38.4216 57.2091 38.5975 57.4042 38.7226C57.5992 38.8476 57.8302 38.9102 58.0969 38.9102C58.2787 38.9102 58.4379 38.8818 58.5746 38.8251C58.713 38.7684 58.8289 38.6926 58.9222 38.5975C59.0173 38.5008 59.089 38.395 59.1373 38.2799L59.56 38.4175C59.5016 38.5792 59.4058 38.7284 59.2724 38.8652C59.1407 39.0019 58.9756 39.1119 58.7772 39.1953C58.5804 39.277 58.3537 39.3178 58.0969 39.3178Z" fill="#E7FEF8"/>
<path d="M50.5829 39.2378V35.3964H51.0156V35.9866H51.0556C51.1323 35.7882 51.2598 35.6323 51.4382 35.5189C51.6183 35.4039 51.8342 35.3463 52.086 35.3463C52.3511 35.3463 52.5687 35.4089 52.7387 35.5339C52.9104 35.6573 53.0388 35.8274 53.1239 36.0441H53.1564C53.2431 35.8307 53.384 35.6615 53.579 35.5364C53.7758 35.4097 54.0142 35.3463 54.2943 35.3463C54.6511 35.3463 54.9329 35.4589 55.1396 35.684C55.3464 35.9074 55.4497 36.2342 55.4497 36.6643V39.2378H55.0046V36.6643C55.0046 36.3609 54.9271 36.1333 54.772 35.9816C54.6169 35.8299 54.4127 35.754 54.1593 35.754C53.8658 35.754 53.6399 35.844 53.4815 36.0241C53.3231 36.2042 53.2439 36.4326 53.2439 36.7094V39.2378H52.7887V36.6243C52.7887 36.3642 52.7162 36.1542 52.5712 35.9941C52.4261 35.834 52.2219 35.754 51.9584 35.754C51.7817 35.754 51.6225 35.7974 51.4807 35.8841C51.3407 35.9708 51.2298 36.0916 51.1481 36.2467C51.0681 36.4001 51.0281 36.5768 51.0281 36.7769V39.2378H50.5829Z" fill="#E7FEF8"/>
<path d="M49.0437 37.7697V35.3963H49.4889V39.2378H49.0437V38.6001H49.0087C48.9186 38.7968 48.7761 38.961 48.581 39.0927C48.3859 39.2228 48.1475 39.2878 47.8657 39.2878C47.6206 39.2878 47.4031 39.2345 47.213 39.1278C47.0229 39.0194 46.8737 38.861 46.7653 38.6526C46.6569 38.4442 46.6028 38.1882 46.6028 37.8848V35.3963H47.0479V37.8573C47.0479 38.1574 47.1363 38.3991 47.313 38.5825C47.4898 38.7643 47.7165 38.8551 47.9933 38.8551C48.1667 38.8551 48.3334 38.8135 48.4935 38.7301C48.6535 38.6467 48.7853 38.525 48.8886 38.365C48.992 38.2032 49.0437 38.0048 49.0437 37.7697Z" fill="#E7FEF8"/>
<path d="M44.2676 39.3178C43.9241 39.3178 43.6248 39.232 43.3697 39.0602C43.1163 38.8885 42.9196 38.6534 42.7795 38.355C42.6395 38.0565 42.5694 37.7164 42.5694 37.3346C42.5694 36.9494 42.6403 36.6068 42.782 36.3067C42.9254 36.0066 43.1238 35.7715 43.3772 35.6014C43.6307 35.4297 43.925 35.3438 44.2601 35.3438C44.5169 35.3438 44.7494 35.3938 44.9579 35.4939C45.1663 35.5922 45.338 35.7315 45.473 35.9115C45.6098 36.0899 45.6956 36.2983 45.7307 36.5368H45.2805C45.2338 36.32 45.1213 36.1349 44.9428 35.9815C44.7661 35.8265 44.541 35.749 44.2676 35.749C44.0225 35.749 43.8057 35.8157 43.6173 35.949C43.4289 36.0808 43.2814 36.265 43.1747 36.5017C43.0696 36.7368 43.0171 37.0094 43.0171 37.3196C43.0171 37.6313 43.0688 37.9073 43.1722 38.1474C43.2756 38.3858 43.4206 38.5725 43.6073 38.7076C43.7957 38.8426 44.0158 38.9102 44.2676 38.9102C44.4377 38.9102 44.5927 38.8785 44.7328 38.8151C44.8745 38.7501 44.9929 38.6584 45.0879 38.54C45.1846 38.4216 45.2496 38.2808 45.283 38.1174H45.7332C45.6998 38.3491 45.6173 38.5559 45.4856 38.7376C45.3555 38.9177 45.1863 39.0594 44.9779 39.1628C44.7711 39.2661 44.5344 39.3178 44.2676 39.3178Z" fill="#E7FEF8"/>
<path d="M40.1836 39.3178C39.8518 39.3178 39.5584 39.2336 39.3033 39.0652C39.0499 38.8968 38.8514 38.6642 38.7081 38.3675C38.5647 38.069 38.493 37.7247 38.493 37.3346C38.493 36.9411 38.5647 36.5951 38.7081 36.2967C38.8514 35.9966 39.0499 35.7631 39.3033 35.5964C39.5584 35.428 39.8518 35.3438 40.1836 35.3438C40.5154 35.3438 40.808 35.428 41.0615 35.5964C41.3149 35.7648 41.5133 35.9982 41.6567 36.2967C41.8017 36.5951 41.8743 36.9411 41.8743 37.3346C41.8743 37.7247 41.8026 38.069 41.6592 38.3675C41.5158 38.6642 41.3166 38.8968 41.0615 39.0652C40.808 39.2336 40.5154 39.3178 40.1836 39.3178ZM40.1836 38.9102C40.4504 38.9102 40.6763 38.8385 40.8614 38.6951C41.0465 38.5517 41.1865 38.3608 41.2815 38.1224C41.3782 37.8839 41.4266 37.6213 41.4266 37.3346C41.4266 37.0478 41.3782 36.7844 41.2815 36.5443C41.1865 36.3042 41.0465 36.1116 40.8614 35.9665C40.6763 35.8215 40.4504 35.749 40.1836 35.749C39.9185 35.749 39.6926 35.8215 39.5059 35.9665C39.3208 36.1116 39.1799 36.3042 39.0832 36.5443C38.9882 36.7844 38.9406 37.0478 38.9406 37.3346C38.9406 37.6213 38.9882 37.8839 39.0832 38.1224C39.1799 38.3608 39.3208 38.5517 39.5059 38.6951C39.6909 38.8385 39.9169 38.9102 40.1836 38.9102Z" fill="#E7FEF8"/>
<path d="M35.839 39.3178C35.5239 39.3178 35.2479 39.2345 35.0112 39.0678C34.7744 38.901 34.5893 38.6684 34.4559 38.37C34.3242 38.0715 34.2584 37.7239 34.2584 37.3271C34.2584 36.9319 34.3242 36.586 34.4559 36.2892C34.5893 35.9907 34.7752 35.759 35.0137 35.5939C35.2521 35.4272 35.5297 35.3438 35.8465 35.3438C36.0799 35.3438 36.2741 35.3855 36.4292 35.4689C36.5843 35.5506 36.7085 35.6523 36.8018 35.774C36.8952 35.8957 36.9677 36.0141 37.0194 36.1291H37.0594V34.1159H37.5071V39.2378H37.0719V38.525H37.0194C36.9677 38.6418 36.8944 38.7618 36.7993 38.8852C36.7043 39.0069 36.5784 39.1094 36.4217 39.1928C36.2666 39.2762 36.0724 39.3178 35.839 39.3178ZM35.8915 38.9102C36.1399 38.9102 36.3517 38.8427 36.5267 38.7076C36.7018 38.5709 36.8352 38.3833 36.9269 38.1449C37.0203 37.9048 37.0669 37.6297 37.0669 37.3196C37.0669 37.0128 37.0211 36.7419 36.9294 36.5068C36.8377 36.27 36.7043 36.0849 36.5292 35.9516C36.3542 35.8165 36.1416 35.749 35.8915 35.749C35.6347 35.749 35.418 35.819 35.2412 35.9591C35.0662 36.0975 34.9328 36.285 34.8411 36.5218C34.7511 36.7585 34.706 37.0245 34.706 37.3196C34.706 37.618 34.7519 37.8873 34.8436 38.1274C34.9353 38.3675 35.0687 38.5584 35.2437 38.7001C35.4205 38.8402 35.6364 38.9102 35.8915 38.9102Z" fill="#E7FEF8"/>
<path d="M29.9763 39.3178C29.6445 39.3178 29.3511 39.2336 29.096 39.0652C28.8426 38.8968 28.6442 38.6642 28.5008 38.3675C28.3574 38.069 28.2857 37.7247 28.2857 37.3346C28.2857 36.9411 28.3574 36.5951 28.5008 36.2967C28.6442 35.9966 28.8426 35.7631 29.096 35.5964C29.3511 35.428 29.6445 35.3438 29.9763 35.3438C30.3081 35.3438 30.6007 35.428 30.8542 35.5964C31.1076 35.7648 31.306 35.9982 31.4494 36.2967C31.5944 36.5951 31.667 36.9411 31.667 37.3346C31.667 37.7247 31.5953 38.069 31.4519 38.3675C31.3085 38.6642 31.1093 38.8968 30.8542 39.0652C30.6007 39.2336 30.3081 39.3178 29.9763 39.3178ZM29.9763 38.9102C30.2431 38.9102 30.469 38.8385 30.6541 38.6951C30.8392 38.5517 30.9792 38.3608 31.0743 38.1224C31.171 37.8839 31.2193 37.6213 31.2193 37.3346C31.2193 37.0478 31.171 36.7844 31.0743 36.5443C30.9792 36.3042 30.8392 36.1116 30.6541 35.9665C30.469 35.8215 30.2431 35.749 29.9763 35.749C29.7112 35.749 29.4853 35.8215 29.2986 35.9665C29.1135 36.1116 28.9726 36.3042 28.8759 36.5443C28.7809 36.7844 28.7334 37.0478 28.7334 37.3346C28.7334 37.6213 28.7809 37.8839 28.8759 38.1224C28.9726 38.3608 29.1135 38.5517 29.2986 38.6951C29.4836 38.8385 29.7096 38.9102 29.9763 38.9102Z" fill="#E7FEF8"/>
<path d="M25.6316 39.3178C25.3165 39.3178 25.0406 39.2345 24.8038 39.0678C24.5671 38.901 24.382 38.6684 24.2486 38.37C24.1169 38.0715 24.051 37.7239 24.051 37.3271C24.051 36.9319 24.1169 36.586 24.2486 36.2892C24.382 35.9907 24.5679 35.759 24.8063 35.5939C25.0448 35.4272 25.3224 35.3438 25.6391 35.3438C25.8726 35.3438 26.0668 35.3855 26.2219 35.4689C26.3769 35.5506 26.5011 35.6523 26.5945 35.774C26.6879 35.8957 26.7604 36.0141 26.8121 36.1291H26.8521V34.1159H27.2998V39.2378H26.8646V38.525H26.8121C26.7604 38.6418 26.687 38.7618 26.592 38.8852C26.497 39.0069 26.3711 39.1094 26.2144 39.1928C26.0593 39.2762 25.8651 39.3178 25.6316 39.3178ZM25.6842 38.9102C25.9326 38.9102 26.1443 38.8427 26.3194 38.7076C26.4945 38.5709 26.6279 38.3833 26.7196 38.1449C26.8129 37.9048 26.8596 37.6297 26.8596 37.3196C26.8596 37.0128 26.8138 36.7419 26.7221 36.5068C26.6304 36.27 26.497 36.0849 26.3219 35.9516C26.1468 35.8165 25.9343 35.749 25.6842 35.749C25.4274 35.749 25.2106 35.819 25.0339 35.9591C24.8588 36.0975 24.7255 36.285 24.6338 36.5218C24.5437 36.7585 24.4987 37.0245 24.4987 37.3196C24.4987 37.618 24.5446 37.8873 24.6363 38.1274C24.728 38.3675 24.8613 38.5584 25.0364 38.7001C25.2132 38.8402 25.4291 38.9102 25.6842 38.9102Z" fill="#E7FEF8"/>
<path d="M20.6998 36.8369V39.2378H20.2547V35.3964H20.6873V35.9991H20.7274C20.8174 35.8024 20.9574 35.6448 21.1475 35.5264C21.3393 35.4064 21.576 35.3463 21.8578 35.3463C22.1162 35.3463 22.343 35.4005 22.538 35.5089C22.7348 35.6156 22.8873 35.7732 22.9957 35.9816C23.1058 36.19 23.1608 36.4459 23.1608 36.7494V39.2378H22.7156V36.7769C22.7156 36.4618 22.6272 36.2125 22.4505 36.0291C22.2754 35.8457 22.0404 35.754 21.7452 35.754C21.5435 35.754 21.3643 35.7974 21.2075 35.8841C21.0508 35.9708 20.9266 36.0958 20.8349 36.2592C20.7449 36.4209 20.6998 36.6135 20.6998 36.8369Z" fill="#E7FEF8"/>
<path d="M18.7155 37.7697V35.3963H19.1606V39.2378H18.7155V38.6001H18.6805C18.5904 38.7968 18.4479 38.961 18.2528 39.0927C18.0577 39.2228 17.8193 39.2878 17.5375 39.2878C17.2924 39.2878 17.0748 39.2345 16.8848 39.1278C16.6947 39.0194 16.5455 38.861 16.4371 38.6526C16.3287 38.4442 16.2745 38.1882 16.2745 37.8848V35.3963H16.7197V37.8573C16.7197 38.1574 16.8081 38.3991 16.9848 38.5825C17.1615 38.7643 17.3883 38.8551 17.6651 38.8551C17.8385 38.8551 18.0052 38.8135 18.1653 38.7301C18.3253 38.6467 18.457 38.525 18.5604 38.365C18.6638 38.2032 18.7155 38.0048 18.7155 37.7697Z" fill="#E7FEF8"/>
<path d="M10.3136 39.2378V35.3964H10.7463V35.9866H10.7863C10.863 35.7882 10.9905 35.6323 11.1689 35.5189C11.349 35.4039 11.5649 35.3463 11.8167 35.3463C12.0818 35.3463 12.2994 35.4089 12.4694 35.5339C12.6412 35.6573 12.7695 35.8274 12.8546 36.0441H12.8871C12.9738 35.8307 13.1147 35.6615 13.3097 35.5364C13.5065 35.4097 13.7449 35.3463 14.025 35.3463C14.3818 35.3463 14.6636 35.4589 14.8703 35.684C15.0771 35.9074 15.1805 36.2342 15.1805 36.6643V39.2378H14.7353V36.6643C14.7353 36.3609 14.6578 36.1333 14.5027 35.9816C14.3476 35.8299 14.1434 35.754 13.89 35.754C13.5965 35.754 13.3706 35.844 13.2122 36.0241C13.0538 36.2042 12.9746 36.4326 12.9746 36.7094V39.2378H12.5194V36.6243C12.5194 36.3642 12.4469 36.1542 12.3019 35.9941C12.1568 35.834 11.9526 35.754 11.6891 35.754C11.5124 35.754 11.3532 35.7974 11.2114 35.8841C11.0714 35.9708 10.9605 36.0916 10.8788 36.2467C10.7988 36.4001 10.7588 36.5768 10.7588 36.7769V39.2378H10.3136Z" fill="#E7FEF8"/>
<path d="M6.87814 37.7697V35.3963H7.32331V39.2378H6.87814V38.6001H6.84313C6.75309 38.7968 6.61054 38.961 6.41547 39.0927C6.22039 39.2228 5.98197 39.2878 5.70019 39.2878C5.4551 39.2878 5.23752 39.2345 5.04744 39.1278C4.85737 39.0194 4.70815 38.861 4.59977 38.6526C4.4914 38.4442 4.43721 38.1882 4.43721 37.8848V35.3963H4.88238V37.8573C4.88238 38.1574 4.97075 38.3991 5.14748 38.5825C5.32422 38.7643 5.55097 38.8551 5.82774 38.8551C6.00114 38.8551 6.16787 38.8135 6.32793 38.7301C6.48799 38.6467 6.61971 38.525 6.72308 38.365C6.82646 38.2032 6.87814 38.0048 6.87814 37.7697Z" fill="#E7FEF8"/>
<path d="M0.370122 34.536V34.1159H4.08404V34.536H2.46092V39.2378H1.99324V34.536H0.370122Z" fill="#E7FEF8"/>
<path d="M37.1318 11.0976L44.6038 5.56402L37.1318 0.0304871V11.0976Z" fill="#0AE6AD"/>
</svg>
