<?xml version="1.0" encoding="UTF-8"?><svg id="Capa_2" xmlns="http://www.w3.org/2000/svg" viewBox="0 0 881.25 336.32"><defs><style>.cls-1,.cls-2{stroke-width:0px;}.cls-2{fill:#0ae6ad;}</style></defs><g id="Capa_1-2"><path class="cls-1" d="M156.31,162.96H59.83v98.87H0V13.64h166.03v46.2H59.83v57.11h96.48v46.03Z"/><path class="cls-1" d="M248.88,261.83h-57.62V0h57.62v261.83Z"/><path class="cls-1" d="M283.82,29.83c0-8.18,2.95-14.89,8.86-20.11,5.91-5.23,13.58-7.84,23.01-7.84s17.1,2.62,23.01,7.84c5.91,5.23,8.86,11.93,8.86,20.11s-2.96,14.89-8.86,20.11c-5.91,5.23-13.58,7.84-23.01,7.84s-17.1-2.61-23.01-7.84c-5.91-5.23-8.86-11.93-8.86-20.11ZM344.85,261.83h-57.62V77.39h57.62v184.44Z"/><path class="cls-1" d="M454.97,128.19l26.76-50.8h59.66l-48.58,89.83,50.97,94.61h-60l-28.98-54.55-28.47,54.55h-60.34l51.14-94.61-48.41-89.83h60.34l25.91,50.8Z"/><path class="cls-1" d="M633.61,181.37l30.68-103.98h61.54l-75.17,215.29-3.24,7.84c-10.68,23.86-29.55,35.8-56.59,35.8-7.5,0-15.4-1.13-23.69-3.4v-40.92h7.5c8.07,0,14.23-1.17,18.5-3.5,4.26-2.33,7.42-6.51,9.46-12.54l4.6-12.28-64.09-186.29h61.37l29.15,103.98Z"/><path class="cls-1" d="M31.65,299.38h-11.8v32.09h-7.94v-32.09H.27v-6.43h31.37v6.43Z"/><path class="cls-1" d="M51.09,328.56c-1.89,2.29-4.5,3.44-7.83,3.44-3.07,0-5.41-.88-7.02-2.65-1.61-1.76-2.44-4.35-2.47-7.75v-18.76h7.64v18.51c0,2.98,1.36,4.48,4.07,4.48s4.37-.9,5.34-2.7v-20.29h7.67v28.62h-7.2l-.21-2.91Z"/><path class="cls-1" d="M84.92,302.85l.24,3.2c2.03-2.49,4.77-3.73,8.23-3.73,3.69,0,6.22,1.45,7.59,4.36,2.01-2.91,4.88-4.36,8.6-4.36,3.1,0,5.41.9,6.93,2.71,1.52,1.81,2.27,4.53,2.27,8.16v18.28h-7.67v-18.25c0-1.62-.32-2.81-.95-3.56-.63-.75-1.75-1.12-3.36-1.12-2.29,0-3.88,1.09-4.76,3.28l.03,19.65h-7.65v-18.23c0-1.66-.33-2.86-.98-3.6-.65-.74-1.76-1.11-3.33-1.11-2.17,0-3.74.9-4.71,2.7v20.24h-7.65v-28.62h7.17Z"/><path class="cls-1" d="M141.8,328.56c-1.89,2.29-4.5,3.44-7.83,3.44-3.07,0-5.41-.88-7.02-2.65-1.61-1.76-2.44-4.35-2.47-7.75v-18.76h7.64v18.51c0,2.98,1.36,4.48,4.07,4.48s4.37-.9,5.34-2.7v-20.29h7.67v28.62h-7.2l-.21-2.91Z"/><path class="cls-1" d="M162.01,302.85l.24,3.31c2.05-2.56,4.79-3.84,8.23-3.84,3.03,0,5.29.89,6.77,2.67,1.48,1.78,2.24,4.44,2.27,7.99v18.49h-7.64v-18.31c0-1.62-.35-2.8-1.06-3.53-.71-.73-1.88-1.1-3.52-1.1-2.15,0-3.77.92-4.84,2.75v20.18h-7.64v-28.62h7.2Z"/><path class="cls-1" d="M184.12,316.95c0-4.46,1-8.02,3-10.66,2-2.65,4.74-3.97,8.21-3.97,2.79,0,5.09,1.04,6.9,3.12v-14.6h7.67v40.63h-6.9l-.37-3.04c-1.9,2.38-4.36,3.57-7.35,3.57-3.37,0-6.07-1.33-8.11-3.98-2.04-2.65-3.06-6.34-3.06-11.07ZM191.77,317.52c0,2.69.47,4.74,1.4,6.17.93,1.43,2.29,2.15,4.07,2.15,2.36,0,4.03-1,5-2.99v-11.31c-.95-2-2.6-2.99-4.95-2.99-3.69,0-5.53,2.99-5.53,8.98Z"/><path class="cls-1" d="M214.65,316.89c0-2.84.55-5.37,1.64-7.59,1.09-2.22,2.67-3.94,4.72-5.16,2.05-1.22,4.44-1.83,7.16-1.83,3.86,0,7.01,1.18,9.46,3.54,2.44,2.36,3.8,5.57,4.09,9.63l.05,1.96c0,4.39-1.23,7.91-3.68,10.57-2.45,2.65-5.74,3.98-9.87,3.98s-7.42-1.32-9.88-3.97c-2.46-2.65-3.69-6.24-3.69-10.79v-.34ZM222.29,317.44c0,2.72.51,4.8,1.53,6.24,1.02,1.44,2.49,2.16,4.39,2.16s3.3-.71,4.34-2.13c1.04-1.42,1.56-3.7,1.56-6.82,0-2.67-.52-4.73-1.56-6.2-1.04-1.47-2.5-2.2-4.39-2.2s-3.32.73-4.34,2.19c-1.02,1.46-1.53,3.71-1.53,6.77Z"/><path class="cls-1" d="M258.77,316.95c0-4.46,1-8.02,3-10.66,2-2.65,4.74-3.97,8.21-3.97,2.79,0,5.09,1.04,6.9,3.12v-14.6h7.67v40.63h-6.9l-.37-3.04c-1.9,2.38-4.36,3.57-7.35,3.57-3.37,0-6.07-1.33-8.11-3.98-2.04-2.65-3.06-6.34-3.06-11.07ZM266.42,317.52c0,2.69.47,4.74,1.4,6.17.93,1.43,2.29,2.15,4.07,2.15,2.36,0,4.03-1,5-2.99v-11.31c-.95-2-2.6-2.99-4.95-2.99-3.69,0-5.53,2.99-5.53,8.98Z"/><path class="cls-1" d="M289.3,316.89c0-2.84.55-5.37,1.64-7.59,1.09-2.22,2.67-3.94,4.72-5.16,2.05-1.22,4.44-1.83,7.16-1.83,3.86,0,7.01,1.18,9.46,3.54,2.44,2.36,3.8,5.57,4.09,9.63l.05,1.96c0,4.39-1.23,7.91-3.68,10.57-2.45,2.65-5.74,3.98-9.87,3.98s-7.42-1.32-9.88-3.97c-2.46-2.65-3.69-6.24-3.69-10.79v-.34ZM296.94,317.44c0,2.72.51,4.8,1.53,6.24,1.02,1.44,2.49,2.16,4.39,2.16s3.3-.71,4.34-2.13c1.04-1.42,1.56-3.7,1.56-6.82,0-2.67-.52-4.73-1.56-6.2-1.04-1.47-2.5-2.2-4.39-2.2s-3.32.73-4.34,2.19c-1.02,1.46-1.53,3.71-1.53,6.77Z"/><path class="cls-1" d="M333.03,325.83c1.41,0,2.56-.39,3.44-1.16.88-.78,1.34-1.81,1.38-3.09h7.17c-.02,1.94-.55,3.72-1.59,5.33-1.04,1.61-2.46,2.87-4.27,3.76-1.81.89-3.8,1.34-5.99,1.34-4.09,0-7.32-1.3-9.68-3.9-2.36-2.6-3.54-6.19-3.54-10.78v-.5c0-4.41,1.17-7.93,3.52-10.55,2.35-2.63,5.56-3.94,9.66-3.94,3.58,0,6.45,1.02,8.61,3.06,2.16,2.04,3.26,4.75,3.29,8.13h-7.17c-.04-1.49-.49-2.7-1.38-3.63-.88-.93-2.05-1.4-3.49-1.4-1.78,0-3.13.65-4.03,1.95-.91,1.3-1.36,3.4-1.36,6.32v.79c0,2.95.45,5.07,1.35,6.36.9,1.29,2.27,1.93,4.1,1.93Z"/><path class="cls-1" d="M366.52,328.56c-1.89,2.29-4.5,3.44-7.83,3.44-3.07,0-5.41-.88-7.02-2.65-1.61-1.76-2.44-4.35-2.47-7.75v-18.76h7.64v18.51c0,2.98,1.36,4.48,4.07,4.48s4.37-.9,5.34-2.7v-20.29h7.67v28.62h-7.2l-.21-2.91Z"/><path class="cls-1" d="M386.86,302.85l.24,3.2c2.03-2.49,4.77-3.73,8.23-3.73,3.69,0,6.22,1.45,7.59,4.36,2.01-2.91,4.88-4.36,8.6-4.36,3.1,0,5.41.9,6.93,2.71,1.52,1.81,2.27,4.53,2.27,8.16v18.28h-7.67v-18.25c0-1.62-.32-2.81-.95-3.56-.63-.75-1.75-1.12-3.36-1.12-2.29,0-3.88,1.09-4.76,3.28l.03,19.65h-7.65v-18.23c0-1.66-.33-2.86-.98-3.6-.65-.74-1.76-1.11-3.33-1.11-2.17,0-3.74.9-4.71,2.7v20.24h-7.65v-28.62h7.17Z"/><path class="cls-1" d="M439.76,332c-4.2,0-7.61-1.29-10.25-3.86-2.64-2.57-3.95-6-3.95-10.29v-.74c0-2.87.56-5.44,1.67-7.71,1.11-2.27,2.69-4.01,4.72-5.24,2.04-1.23,4.36-1.84,6.97-1.84,3.92,0,7,1.23,9.25,3.7,2.25,2.47,3.37,5.97,3.37,10.5v3.12h-18.23c.25,1.87.99,3.37,2.24,4.5,1.24,1.13,2.82,1.69,4.72,1.69,2.94,0,5.25-1.07,6.9-3.2l3.76,4.21c-1.15,1.62-2.7,2.89-4.66,3.8-1.96.91-4.13,1.36-6.51,1.36ZM438.89,308.48c-1.52,0-2.75.51-3.69,1.54-.94,1.03-1.55,2.5-1.81,4.41h10.63v-.61c-.04-1.7-.49-3.02-1.38-3.95-.88-.93-2.13-1.4-3.76-1.4Z"/><path class="cls-1" d="M462.91,302.85l.24,3.31c2.05-2.56,4.79-3.84,8.23-3.84,3.03,0,5.29.89,6.77,2.67,1.48,1.78,2.24,4.44,2.27,7.99v18.49h-7.64v-18.31c0-1.62-.35-2.8-1.06-3.53-.71-.73-1.88-1.1-3.52-1.1-2.15,0-3.77.92-4.84,2.75v20.18h-7.64v-28.62h7.2Z"/><path class="cls-1" d="M495.37,295.81v7.04h4.89v5.61h-4.89v14.28c0,1.06.2,1.82.61,2.27.41.46,1.18.69,2.33.69.85,0,1.6-.06,2.25-.19v5.79c-1.5.46-3.04.69-4.63.69-5.36,0-8.09-2.71-8.2-8.12v-15.42h-4.18v-5.61h4.18v-7.04h7.65Z"/><path class="cls-1" d="M521.11,331.47c-.35-.69-.61-1.54-.77-2.57-1.85,2.06-4.26,3.09-7.22,3.09-2.8,0-5.13-.81-6.97-2.43-1.84-1.62-2.76-3.67-2.76-6.14,0-3.03,1.12-5.36,3.37-6.98,2.25-1.62,5.5-2.44,9.75-2.46h3.52v-1.64c0-1.32-.34-2.38-1.02-3.17-.68-.79-1.75-1.19-3.21-1.19-1.29,0-2.3.31-3.03.93-.73.62-1.1,1.46-1.1,2.54h-7.65c0-1.66.51-3.19,1.53-4.6,1.02-1.41,2.47-2.52,4.34-3.32,1.87-.8,3.97-1.2,6.3-1.2,3.53,0,6.33.89,8.4,2.66,2.07,1.77,3.11,4.26,3.11,7.47v12.41c.02,2.72.4,4.77,1.14,6.16v.45h-7.72ZM514.78,326.15c1.13,0,2.17-.25,3.12-.75.95-.5,1.66-1.18,2.12-2.02v-4.92h-2.86c-3.83,0-5.86,1.32-6.11,3.97l-.03.45c0,.95.33,1.74,1.01,2.35.67.62,1.59.93,2.75.93Z"/><path class="cls-1" d="M541.63,331.47h-7.67v-40.63h7.67v40.63Z"/><path class="cls-2" d="M865.63,121.16l-26.55-26.55c-10.07-10.07-23.46-15.62-37.71-15.62h-34.4c-21,0-38.09,17.08-38.09,38.08v106.65c0,21,17.09,38.09,38.09,38.09h76.18c21,0,38.09-17.09,38.09-38.09v-64.87c0-14.25-5.55-27.63-15.62-37.71h0ZM854.86,131.93c2.4,2.4,4.3,5.13,5.95,8h-32.89c-4.2,0-7.62-3.42-7.62-7.62v-32.89c2.86,1.65,5.6,3.55,8,5.95l26.55,26.55h0ZM866.01,223.73c0,12.6-10.25,22.85-22.85,22.85h-76.18c-12.6,0-22.85-10.25-22.85-22.85v-106.65c0-12.6,10.25-22.85,22.85-22.85h34.4c1.26,0,2.46.24,3.69.36v37.73c0,12.6,10.25,22.85,22.85,22.85h37.73c.12,1.23.36,2.44.36,3.69v64.87h0ZM838.4,179.68l-10.47,7.85v-9.52c0-4.21-3.41-7.62-7.62-7.62h-53.33c-4.21,0-7.62,3.41-7.62,7.62v45.71c0,4.21,3.41,7.62,7.62,7.62h53.33c4.21,0,7.62-3.41,7.62-7.62v-9.52l10.47,7.85c5.1,3.82,12.38.18,12.38-6.19v-30c0-6.38-7.28-10.01-12.38-6.19h0ZM812.69,216.11h-38.09v-30.47h38.09v30.47Z"/></g></svg>